<?xml version="1.0" encoding="UTF-8"?>
<svg xmlns="http://www.w3.org/2000/svg" width="1600" height="900" viewBox="0 0 1600 900"><rect x="0" y="0" width="1600" height="900" fill="#ffffff"/><text x="64" y="46" font-size="22" font-family="ui-sans-serif, system-ui" fill="#111827" font-weight="600">Information Architecture</text><text x="64" y="72" font-size="14" font-family="ui-sans-serif, system-ui" fill="#6b7280">Tabs → key screens (Taibai Travel App)</text><rect x="64" y="100" width="350" height="736" rx="18" fill="#f9fafb" stroke="#e5e7eb"/><rect x="78" y="114" width="322" height="44" rx="14" fill="#fff" stroke="#e5e7eb"/><text x="92" y="142" font-size="18" font-family="ui-sans-serif, system-ui" fill="#111827" font-weight="700">首页</text><rect x="78" y="176" width="322" height="34" rx="14" fill="#fff" stroke="#e5e7eb"/><text x="92" y="198" font-size="14" font-family="ui-sans-serif, system-ui" fill="#111827">太白山介绍</text><rect x="78" y="220" width="322" height="34" rx="14" fill="#fff" stroke="#e5e7eb"/><text x="92" y="242" font-size="14" font-family="ui-sans-serif, system-ui" fill="#111827">天气/今日天气</text><rect x="78" y="264" width="322" height="34" rx="14" fill="#fff" stroke="#e5e7eb"/><text x="92" y="286" font-size="14" font-family="ui-sans-serif, system-ui" fill="#111827">景区客流量</text><rect x="78" y="308" width="322" height="34" rx="14" fill="#fff" stroke="#e5e7eb"/><text x="92" y="330" font-size="14" font-family="ui-sans-serif, system-ui" fill="#111827">景区直播</text><rect x="78" y="352" width="322" height="34" rx="14" fill="#fff" stroke="#e5e7eb"/><text x="92" y="374" font-size="14" font-family="ui-sans-serif, system-ui" fill="#111827">紧急联系</text><rect x="78" y="396" width="322" height="34" rx="14" fill="#fff" stroke="#e5e7eb"/><text x="92" y="418" font-size="14" font-family="ui-sans-serif, system-ui" fill="#111827">智能客服</text><rect x="432" y="100" width="350" height="736" rx="18" fill="#f9fafb" stroke="#e5e7eb"/><rect x="446" y="114" width="322" height="44" rx="14" fill="#fff" stroke="#e5e7eb"/><text x="460" y="142" font-size="18" font-family="ui-sans-serif, system-ui" fill="#111827" font-weight="700">探索</text><rect x="446" y="176" width="322" height="34" rx="14" fill="#fff" stroke="#e5e7eb"/><text x="460" y="198" font-size="14" font-family="ui-sans-serif, system-ui" fill="#111827">景点列表/详情</text><rect x="446" y="220" width="322" height="34" rx="14" fill="#fff" stroke="#e5e7eb"/><text x="460" y="242" font-size="14" font-family="ui-sans-serif, system-ui" fill="#111827">推荐路线/路线详情</text><rect x="446" y="264" width="322" height="34" rx="14" fill="#fff" stroke="#e5e7eb"/><text x="460" y="286" font-size="14" font-family="ui-sans-serif, system-ui" fill="#111827">便民设施</text><rect x="446" y="308" width="322" height="34" rx="14" fill="#fff" stroke="#e5e7eb"/><text x="460" y="330" font-size="14" font-family="ui-sans-serif, system-ui" fill="#111827">设施导览</text><rect x="446" y="352" width="322" height="34" rx="14" fill="#fff" stroke="#e5e7eb"/><text x="460" y="374" font-size="14" font-family="ui-sans-serif, system-ui" fill="#111827">停车场</text><rect x="446" y="396" width="322" height="34" rx="14" fill="#fff" stroke="#e5e7eb"/><text x="460" y="418" font-size="14" font-family="ui-sans-serif, system-ui" fill="#111827">实时接驳</text><rect x="446" y="440" width="322" height="34" rx="14" fill="#fff" stroke="#e5e7eb"/><text x="460" y="462" font-size="14" font-family="ui-sans-serif, system-ui" fill="#111827">VR体验</text><rect x="800" y="100" width="350" height="736" rx="18" fill="#f9fafb" stroke="#e5e7eb"/><rect x="814" y="114" width="322" height="44" rx="14" fill="#fff" stroke="#e5e7eb"/><text x="828" y="142" font-size="18" font-family="ui-sans-serif, system-ui" fill="#111827" font-weight="700">行程</text><rect x="814" y="176" width="322" height="34" rx="14" fill="#fff" stroke="#e5e7eb"/><text x="828" y="198" font-size="14" font-family="ui-sans-serif, system-ui" fill="#111827">收藏/路线分析</text><rect x="814" y="220" width="322" height="34" rx="14" fill="#fff" stroke="#e5e7eb"/><text x="828" y="242" font-size="14" font-family="ui-sans-serif, system-ui" fill="#111827">到站规划</text><rect x="814" y="264" width="322" height="34" rx="14" fill="#fff" stroke="#e5e7eb"/><text x="828" y="286" font-size="14" font-family="ui-sans-serif, system-ui" fill="#111827">行后故事</text><rect x="814" y="308" width="322" height="34" rx="14" fill="#fff" stroke="#e5e7eb"/><text x="828" y="330" font-size="14" font-family="ui-sans-serif, system-ui" fill="#111827">行后评价</text><rect x="1168" y="100" width="350" height="736" rx="18" fill="#f9fafb" stroke="#e5e7eb"/><rect x="1182" y="114" width="322" height="44" rx="14" fill="#fff" stroke="#e5e7eb"/><text x="1196" y="142" font-size="18" font-family="ui-sans-serif, system-ui" fill="#111827" font-weight="700">我的</text><rect x="1182" y="176" width="322" height="34" rx="14" fill="#fff" stroke="#e5e7eb"/><text x="1196" y="198" font-size="14" font-family="ui-sans-serif, system-ui" fill="#111827">我的购买</text><rect x="1182" y="220" width="322" height="34" rx="14" fill="#fff" stroke="#e5e7eb"/><text x="1196" y="242" font-size="14" font-family="ui-sans-serif, system-ui" fill="#111827">购买详情</text><rect x="1182" y="264" width="322" height="34" rx="14" fill="#fff" stroke="#e5e7eb"/><text x="1196" y="286" font-size="14" font-family="ui-sans-serif, system-ui" fill="#111827">确认下单</text><rect x="1182" y="308" width="322" height="34" rx="14" fill="#fff" stroke="#e5e7eb"/><text x="1196" y="330" font-size="14" font-family="ui-sans-serif, system-ui" fill="#111827">门票核销/票夹</text></svg>