<?xml version="1.0" encoding="UTF-8"?>
<svg xmlns="http://www.w3.org/2000/svg" width="1600" height="900" viewBox="0 0 1600 900"><rect x="0" y="0" width="1600" height="900" fill="#ffffff"/><text x="64" y="46" font-size="22" font-family="ui-sans-serif, system-ui" fill="#111827" font-weight="600">User Journey</text><text x="64" y="72" font-size="14" font-family="ui-sans-serif, system-ui" fill="#6b7280">Plan → Explore → Arrive → Trip → Ticket/Service → Share</text><line x1="64" y1="96" x2="1536" y2="96" stroke="#e5e7eb" stroke-width="2"/><circle cx="176" cy="96" r="8" fill="#4CB3AB"/><rect x="64" y="112" width="225" height="112" rx="18" fill="#fff" stroke="#e5e7eb"/><text x="82" y="142" font-size="16" font-family="ui-sans-serif, system-ui" fill="#111827" font-weight="700">行前规划</text><text x="82" y="166" font-size="12" font-family="ui-sans-serif, system-ui" fill="#6b7280">天气/客流 → 目标点位 → 路线推荐</text><rect x="82" y="182" width="189" height="22" rx="11" fill="#f9fafb" stroke="#e5e7eb"/><text x="92" y="197" font-size="12" font-family="ui-sans-serif, system-ui" fill="#111827">首页</text><rect x="82" y="208" width="189" height="22" rx="11" fill="#f9fafb" stroke="#e5e7eb"/><text x="92" y="223" font-size="12" font-family="ui-sans-serif, system-ui" fill="#111827">天气</text><rect x="82" y="234" width="189" height="22" rx="11" fill="#f9fafb" stroke="#e5e7eb"/><text x="92" y="249" font-size="12" font-family="ui-sans-serif, system-ui" fill="#111827">景区客流量</text><circle cx="425" cy="96" r="8" fill="#4CB3AB"/><rect x="313" y="112" width="225" height="112" rx="18" fill="#fff" stroke="#e5e7eb"/><text x="331" y="142" font-size="16" font-family="ui-sans-serif, system-ui" fill="#111827" font-weight="700">探索决策</text><text x="331" y="166" font-size="12" font-family="ui-sans-serif, system-ui" fill="#6b7280">景点/路线/设施对比 → 收藏</text><rect x="331" y="182" width="189" height="22" rx="11" fill="#f9fafb" stroke="#e5e7eb"/><text x="341" y="197" font-size="12" font-family="ui-sans-serif, system-ui" fill="#111827">探索</text><rect x="331" y="208" width="189" height="22" rx="11" fill="#f9fafb" stroke="#e5e7eb"/><text x="341" y="223" font-size="12" font-family="ui-sans-serif, system-ui" fill="#111827">景点详情</text><rect x="331" y="234" width="189" height="22" rx="11" fill="#f9fafb" stroke="#e5e7eb"/><text x="341" y="249" font-size="12" font-family="ui-sans-serif, system-ui" fill="#111827">推荐路线</text><circle cx="674" cy="96" r="8" fill="#4CB3AB"/><rect x="562" y="112" width="225" height="112" rx="18" fill="#fff" stroke="#e5e7eb"/><text x="580" y="142" font-size="16" font-family="ui-sans-serif, system-ui" fill="#111827" font-weight="700">到达出行</text><text x="580" y="166" font-size="12" font-family="ui-sans-serif, system-ui" fill="#6b7280">停车/接驳 → 导航与设施导览</text><rect x="580" y="182" width="189" height="22" rx="11" fill="#f9fafb" stroke="#e5e7eb"/><text x="590" y="197" font-size="12" font-family="ui-sans-serif, system-ui" fill="#111827">停车场</text><rect x="580" y="208" width="189" height="22" rx="11" fill="#f9fafb" stroke="#e5e7eb"/><text x="590" y="223" font-size="12" font-family="ui-sans-serif, system-ui" fill="#111827">实时接驳</text><rect x="580" y="234" width="189" height="22" rx="11" fill="#f9fafb" stroke="#e5e7eb"/><text x="590" y="249" font-size="12" font-family="ui-sans-serif, system-ui" fill="#111827">设施导览</text><circle cx="923" cy="96" r="8" fill="#4CB3AB"/><rect x="811" y="112" width="225" height="112" rx="18" fill="#fff" stroke="#e5e7eb"/><text x="829" y="142" font-size="16" font-family="ui-sans-serif, system-ui" fill="#111827" font-weight="700">游玩执行</text><text x="829" y="166" font-size="12" font-family="ui-sans-serif, system-ui" fill="#6b7280">路线高亮 → 节点打卡 → 风险提示</text><rect x="829" y="182" width="189" height="22" rx="11" fill="#f9fafb" stroke="#e5e7eb"/><text x="839" y="197" font-size="12" font-family="ui-sans-serif, system-ui" fill="#111827">路线详情</text><rect x="829" y="208" width="189" height="22" rx="11" fill="#f9fafb" stroke="#e5e7eb"/><text x="839" y="223" font-size="12" font-family="ui-sans-serif, system-ui" fill="#111827">路线分析</text><rect x="829" y="234" width="189" height="22" rx="11" fill="#f9fafb" stroke="#e5e7eb"/><text x="839" y="249" font-size="12" font-family="ui-sans-serif, system-ui" fill="#111827">紧急联系</text><circle cx="1172" cy="96" r="8" fill="#4CB3AB"/><rect x="1060" y="112" width="225" height="112" rx="18" fill="#fff" stroke="#e5e7eb"/><text x="1078" y="142" font-size="16" font-family="ui-sans-serif, system-ui" fill="#111827" font-weight="700">票务与服务</text><text x="1078" y="166" font-size="12" font-family="ui-sans-serif, system-ui" fill="#6b7280">购票/订单 → 核销/票夹 → 客服</text><rect x="1078" y="182" width="189" height="22" rx="11" fill="#f9fafb" stroke="#e5e7eb"/><text x="1088" y="197" font-size="12" font-family="ui-sans-serif, system-ui" fill="#111827">确认下单</text><rect x="1078" y="208" width="189" height="22" rx="11" fill="#f9fafb" stroke="#e5e7eb"/><text x="1088" y="223" font-size="12" font-family="ui-sans-serif, system-ui" fill="#111827">门票</text><rect x="1078" y="234" width="189" height="22" rx="11" fill="#f9fafb" stroke="#e5e7eb"/><text x="1088" y="249" font-size="12" font-family="ui-sans-serif, system-ui" fill="#111827">智能客服</text><circle cx="1421" cy="96" r="8" fill="#4CB3AB"/><rect x="1309" y="112" width="225" height="112" rx="18" fill="#fff" stroke="#e5e7eb"/><text x="1327" y="142" font-size="16" font-family="ui-sans-serif, system-ui" fill="#111827" font-weight="700">行后分享</text><text x="1327" y="166" font-size="12" font-family="ui-sans-serif, system-ui" fill="#6b7280">故事发布 → 评价反馈</text><rect x="1327" y="182" width="189" height="22" rx="11" fill="#f9fafb" stroke="#e5e7eb"/><text x="1337" y="197" font-size="12" font-family="ui-sans-serif, system-ui" fill="#111827">行后故事</text><rect x="1327" y="208" width="189" height="22" rx="11" fill="#f9fafb" stroke="#e5e7eb"/><text x="1337" y="223" font-size="12" font-family="ui-sans-serif, system-ui" fill="#111827">行后评价</text><rect x="1327" y="234" width="189" height="22" rx="11" fill="#f9fafb" stroke="#e5e7eb"/><text x="1337" y="249" font-size="12" font-family="ui-sans-serif, system-ui" fill="#111827">社区活动</text><text x="64" y="844" font-size="12" font-family="ui-sans-serif, system-ui" fill="#6b7280">Generated from local app navigation (taibai-app) · diagrams are illustrative.</text></svg>